<svg width="20" height="19" viewBox="0 0 20 19" fill="none" xmlns="http://www.w3.org/2000/svg">
    <path fill-rule="evenodd" clip-rule="evenodd" d="M19.2576 17.1968L13.9034 11.9728C14.7342 10.7813 15.2881 9.31496 15.2881 7.75692C15.2881 3.6327 11.8725 0.333332 7.81071 0.333332C3.6566 0.333332 0.333313 3.6327 0.333313 7.75692C0.333313 11.7895 3.6566 15.1805 7.81071 15.1805C9.74929 15.1805 11.5032 14.4473 12.7956 13.1642L18.0575 18.3882C18.8883 19.2131 19.9961 18.0216 19.2576 17.1968ZM7.81071 1.98302C10.9494 1.98302 13.6265 4.5492 13.6265 7.75692C13.6265 10.873 10.9494 13.5308 7.81071 13.5308C4.57973 13.5308 1.99496 10.873 1.99496 7.75692C1.99496 4.5492 4.57973 1.98302 7.81071 1.98302Z" fill="white"/>
</svg>
