<svg width="46" height="46" viewBox="0 0 46 46" fill="none" xmlns="http://www.w3.org/2000/svg">
    <rect width="46" height="46" rx="14" fill="#4DACF6"/>
    <mask id="mask0_2_83" style="mask-type:alpha" maskUnits="userSpaceOnUse" x="0" y="0" width="46" height="46">
        <rect width="46" height="46" rx="14" fill="white"/>
    </mask>
    <g mask="url(#mask0_2_83)">
        <path fill-rule="evenodd" clip-rule="evenodd" d="M24.1254 19.3212C24.3281 19.2079 24.5377 19.1046 24.7535 19.0121L24.7509 19.0085C25.588 18.6209 26.5246 18.404 27.5133 18.404C29.9971 18.404 32.1524 19.773 33.2263 21.778V21.778C33.72 22.6583 34 23.6643 34 24.7328C34 28.1941 31.0619 31 27.4375 31C24.6693 31 22.3015 29.3632 21.3372 27.0478H13.0696C13.0067 27.0478 12.9813 27.0054 13.0149 26.9498L20.816 14.0411C20.8487 13.987 20.9008 13.9856 20.9344 14.0411L24.1254 19.3212V19.3212ZM24.5628 20.0451C25.4063 19.5723 26.3888 19.3013 27.4375 19.3013C30.5786 19.3013 33.125 21.733 33.125 24.7328C33.125 27.7326 30.5786 30.1644 27.4375 30.1644C25.1634 30.1644 23.201 28.8898 22.291 27.0478H28.6808C28.7435 27.0478 28.7682 27.0039 28.7356 26.9498L24.5628 20.0451V20.0451ZM27.1207 26.0916H14.575L20.8478 15.7303L27.1207 26.0916Z" fill="white"/>
    </g>
</svg>
