<svg width="20" height="19" fill="none" xmlns="http://www.w3.org/2000/svg"><path fill-rule="evenodd" clip-rule="evenodd" d="m19.258 17.197-5.355-5.224c.831-1.192 1.385-2.658 1.385-4.216 0-4.124-3.415-7.424-7.477-7.424-4.154 0-7.478 3.3-7.478 7.424 0 4.033 3.324 7.424 7.478 7.424 1.938 0 3.692-.734 4.985-2.017l5.262 5.224c.83.825 1.938-.366 1.2-1.191ZM7.81 1.983c3.138 0 5.816 2.566 5.816 5.774 0 3.116-2.678 5.774-5.816 5.774-3.231 0-5.816-2.658-5.816-5.774 0-3.208 2.585-5.774 5.816-5.774Z" fill="#fff"/></svg>